<svg xmlns="http://www.w3.org/2000/svg" width="89" height="22" viewBox="0 0 89 22"><defs><style>.a,.b{fill:#efc003;}.b{stroke:#072c6b;}.c{fill:#0e204b;}.d{fill:#072c6b;font-size:9px;font-family:NeueHaasUnicaW1G-BlackIt, Neue Haas Unica W1G;font-weight:800;font-style:italic;letter-spacing:0.018em;}.e{stroke:none;}.f{fill:none;}</style></defs><g transform="translate(-1590.421 -573.774)"><rect class="a" width="80" height="19" rx="4" transform="translate(1599.421 575.774)"/><g class="b" transform="translate(1590.421 573.774)"><circle class="e" cx="11" cy="11" r="11"/><circle class="f" cx="11" cy="11" r="10.5"/></g><path class="c" d="M1892.617,274.689c-.3.017-1.085.127-1.449.2a4.378,4.378,0,0,0-2.072.808c-.287.268-.356.445-.445,1.138-.189,1.439-.256,1.934-.33,2.476l-.084.59,0,2.512a11.162,11.162,0,0,0,.041,2.515c.029,0,.213,0,.406.01l.354,0,.014.516c.014.552.024.578.188.76a.722.722,0,0,0,.669.182.675.675,0,0,0,.428-.316c.083-.139.086-.155.1-.643l.014-.5,2.557,0c1.408,0,2.577,0,2.606.01s.045.091.045.488c0,.514.024.619.172.772a.712.712,0,0,0,1.15-.184,1.957,1.957,0,0,0,.064-.593l.014-.488.392-.01.39-.01V282.46c0-1.979-.01-2.534-.045-2.792-.024-.179-.129-.994-.237-1.814s-.21-1.537-.227-1.592a1.549,1.549,0,0,0-.265-.49,3.38,3.38,0,0,0-1.563-.746A10.08,10.08,0,0,0,1892.617,274.689Zm2.6.97a.311.311,0,0,1,.033.378.22.22,0,0,1-.189.122c-.067.01-1.023.014-2.122.01l-2-.01-.072-.084a.305.305,0,0,1,.089-.464c.033-.014.994-.024,2.132-.022C1895.131,275.6,1895.153,275.6,1895.213,275.66Zm1.15,1.154c.2.11.215.16.428,1.668.105.758.191,1.439.191,1.511a.313.313,0,0,1-.148.316,30.713,30.713,0,0,1-3.805.05c-4.147,0-3.822.017-3.913-.2-.052-.124-.062-.033.2-1.907.156-1.123.177-1.233.272-1.339.141-.153,0-.148,3.456-.151A20.672,20.672,0,0,1,1896.362,276.814Zm-6.27,5.366a.654.654,0,1,1-.758.029A.674.674,0,0,1,1890.093,282.18Zm6.594-.01a.831.831,0,0,1,.2.2c.074.11.084.151.084.366s0,.251-.091.37a.658.658,0,0,1-1.19-.368.633.633,0,0,1,.363-.6A.653.653,0,0,1,1896.687,282.171Z" transform="translate(-291.148 304.61)"/><text class="d" transform="translate(1640.421 588.774)"><tspan x="-22.244" y="0">ASSURED</tspan></text></g></svg>