<?xml version="1.0" encoding="utf-8"?>
<!-- Generator: Adobe Illustrator 23.0.5, SVG Export Plug-In . SVG Version: 6.00 Build 0)  -->
<svg version="1.1" id="Layer_1" xmlns="http://www.w3.org/2000/svg" xmlns:xlink="http://www.w3.org/1999/xlink" x="0px" y="0px"
	 viewBox="0 0 38.5 42" style="enable-background:new 0 0 38.5 42;" xml:space="preserve">
<style type="text/css">
	.st0{fill:#00B19F;}
	.st1{fill:none;stroke:#FFFFFF;}
</style>
<path class="st0" d="M2.3,29.8v-22c0-3.3,2.7-6,6-6h22c3.3,0,6,2.7,6,6v22c0,3.3-2.7,6-6,6h-22C5,35.8,2.3,33,2.3,29.8z"/>
<path class="st0" d="M40.3,11.8v17c0,2.2-1.8,4-4,4l0,0c-2.2,0-4-1.8-4-4v-17c0-2.2,1.8-4,4-4l0,0C38.5,7.8,40.3,9.6,40.3,11.8z"/>
<path class="st1" d="M39.8,11.8v17c0,1.9-1.6,3.5-3.5,3.5l0,0c-1.9,0-3.5-1.6-3.5-3.5v-17c0-1.9,1.6-3.5,3.5-3.5l0,0
	C38.2,8.3,39.8,9.9,39.8,11.8z"/>
<path class="st0" d="M6.3,11.8v17c0,2.2-1.8,4-4,4l0,0c-2.2,0-4-1.8-4-4v-17c0-2.2,1.8-4,4-4l0,0C4.5,7.8,6.3,9.6,6.3,11.8z"/>
<path class="st1" d="M5.8,11.8v17c0,1.9-1.6,3.5-3.5,3.5l0,0c-1.9,0-3.5-1.6-3.5-3.5v-17c0-1.9,1.6-3.5,3.5-3.5l0,0
	C4.2,8.3,5.8,9.9,5.8,11.8z"/>
<path class="st0" d="M31.3,40.3h-24c-2.2,0-4-1.8-4-4l0,0c0-2.2,1.8-4,4-4h24c2.2,0,4,1.8,4,4l0,0C35.3,38.5,33.5,40.3,31.3,40.3z"
	/>
<path class="st1" d="M31.3,39.8h-24c-1.9,0-3.5-1.6-3.5-3.5l0,0c0-1.9,1.6-3.5,3.5-3.5h24c1.9,0,3.5,1.6,3.5,3.5l0,0
	C34.8,38.2,33.2,39.8,31.3,39.8z"/>
</svg>
