<?xml version="1.0" encoding="utf-8"?>
<!-- Generator: Adobe Illustrator 23.0.5, SVG Export Plug-In . SVG Version: 6.00 Build 0)  -->
<svg version="1.1" id="Layer_1" xmlns="http://www.w3.org/2000/svg" xmlns:xlink="http://www.w3.org/1999/xlink" x="0px" y="0px"
	 viewBox="0 0 38.5 42" style="enable-background:new 0 0 38.5 42;" xml:space="preserve">
<style type="text/css">
	.st0{fill:#072C6B;}
	.st1{fill:none;stroke:#FFFFFF;}
</style>
<g transform="translate(1669.5 3467) rotate(180)">
	<path class="st0" d="M1633.3,3459.3v-22c0-3.3,2.7-6,6-6h22c3.3,0,6,2.7,6,6v22c0,3.3-2.7,6-6,6h-22
		C1635.9,3465.3,1633.3,3462.6,1633.3,3459.3z"/>
	<g transform="translate(1637 3425)">
		<path class="st0" d="M-7.8,30.3v-17c0-2.2,1.8-4,4-4l0,0c2.2,0,4,1.8,4,4v17c0,2.2-1.8,4-4,4l0,0C-6,34.3-7.8,32.5-7.8,30.3z"/>
		<path class="st1" d="M-7.3,30.3v-17c0-1.9,1.6-3.5,3.5-3.5l0,0c1.9,0,3.5,1.6,3.5,3.5v17c0,1.9-1.6,3.5-3.5,3.5l0,0
			C-5.7,33.8-7.3,32.1-7.3,30.3z"/>
	</g>
	<g transform="translate(1637 3459)">
		<path class="st0" d="M26.3-3.8v-17c0-2.2,1.8-4,4-4l0,0c2.2,0,4,1.8,4,4v17c0,2.2-1.8,4-4,4l0,0C28,0.3,26.3-1.5,26.3-3.8z"/>
		<path class="st1" d="M26.8-3.8v-17c0-1.9,1.6-3.5,3.5-3.5l0,0c1.9,0,3.5,1.6,3.5,3.5v17c0,1.9-1.6,3.5-3.5,3.5l0,0
			C28.4-0.3,26.8-1.9,26.8-3.8z"/>
	</g>
	<g transform="translate(1669.5 3430) rotate(90)">
		<path class="st0" d="M-3.3,31.3v-24c0-2.2,1.8-4,4-4l0,0c2.2,0,4,1.8,4,4v24c0,2.2-1.8,4-4,4l0,0C-1.5,35.3-3.3,33.5-3.3,31.3z"/>
		<path class="st1" d="M-2.8,31.3v-24c0-1.9,1.6-3.5,3.5-3.5l0,0c1.9,0,3.5,1.6,3.5,3.5v24c0,1.9-1.6,3.5-3.5,3.5l0,0
			C-1.2,34.8-2.8,33.1-2.8,31.3z"/>
	</g>
</g>
</svg>
