<?xml version="1.0" encoding="utf-8"?>
<!-- Generator: Adobe Illustrator 24.0.0, SVG Export Plug-In . SVG Version: 6.00 Build 0)  -->
<svg version="1.1" id="Layer_1" xmlns="http://www.w3.org/2000/svg" xmlns:xlink="http://www.w3.org/1999/xlink" x="0px" y="0px"
	 viewBox="0 0 36 64" style="enable-background:new 0 0 36 64;" xml:space="preserve">
<style type="text/css">
	.st0{fill:#072C6B;}
	.st1{fill:#FFFFFF;}
</style>
<path class="st0" d="M36,1v62c0,0.6-0.4,1-1,1H1c-0.6,0-1-0.4-1-1L0,1c0-0.6,0.4-1,1-1l34,0C35.6,0,36,0.4,36,1z"/>
<path class="st1" d="M29.6,7.9L29.6,7.9c0,1.8-1.4,3.2-3.2,3.2H9.6c-1.8,0-3.2-1.4-3.2-3.2l0,0c0-1.8,1.4-3.2,3.2-3.2h16.7
	C28.1,4.7,29.6,6.1,29.6,7.9z"/>
</svg>
